{"title":"The Legend Of Awesomest Maximus 2010 DvDRip Feel-Free","uid":6041313,"size":767741619,"categoryP":"video","categoryS":"movies","magnet":"?xt=urn:btih:33ac92a55940505293c414495908b233955357cb&amp;dn=The+Legend+Of+Awesomest+Maximus+2010+DvDRip+Feel-Free&amp;tr=udp%3A%2F%2Ftracker.openbittorrent.com%3A80&amp;tr=udp%3A%2F%2Fopen.demonii.com%3A1337&amp;tr=udp%3A%2F%2Ftracker.coppersurfer.tk%3A6969&amp;tr=udp%3A%2F%2Fexodus.desync.com%3A6969","seeders":0,"leechers":1,"uploader":"HeroMaster","files":-1,"time":1292400237,"description":"Genre:Comedy\nLanguage:English\nIMDb:http://www.imdb.com/title/tt1059887/\nSource:DVD\n\n\nFormat : Matroska\nFile size : 729 MiB\nDuration : 1h 27mn\nOverall bit rate : 1 169 Kbps\n\n\nVideo\nFormat settings, CABAC : Yes\nFormat settings, ReFrames : 4 frames\nFormat settings, GOP : M=4, N=6\nCodec ID : V_MPEG4/ISO/AVC\nDuration : 1h 27mn\nBit rate : 789 Kbps\nWidth : 720 pixels\nHeight : 384 pixels\nDisplay aspect ratio : 1.875\nFrame rate mode : Variable\nFrame rate : 25.000 fps\nColor space : YUV\nChroma subsampling : 4:2:0\nBit depth : 8 bits\nScan type : Progressive\nBits/(Pixel*Frame) : 0.114\nStream size : 475 MiB (65%)\nWriting library : x264\n\nAudio\nID : 2\nFormat : AC-3\nFormat/Info : Audio Coding 3\nMode extension : CM (complete main)\nCodec ID : A_AC3\nDuration : 1h 27mn\nBit rate mode : Constant\nBit rate : 384 Kbps\nChannel(s) : 6 channels\nChannel positions : Front: L C R, Side: L R, LFE\nSampling rate : 48.0 KHz\nBit depth : 16 bits\nVideo delay : -1mn 5s\nStream size : 240 MiB (33%)\nLanguage : English\n\n\nScreenshots:\n &lt;a href=&quot;\nhttp://www.leetleech.org/images/68400052706915794621.png&quot; rel=&quot;nofollow&quot; target=&quot;_NEW&quot;&gt;\nhttp://www.leetleech.org/images/68400052706915794621.png&lt;/a&gt; &lt;a href=&quot;\nhttp://www.leetleech.org/images/59296458874700812294.png&quot; rel=&quot;nofollow&quot; target=&quot;_NEW&quot;&gt;\nhttp://www.leetleech.org/images/59296458874700812294.png&lt;/a&gt; &lt;a href=&quot;\nhttp://www.leetleech.org/images/42487376653911702881.png&quot; rel=&quot;nofollow&quot; target=&quot;_NEW&quot;&gt;\nhttp://www.leetleech.org/images/42487376653911702881.png&lt;/a&gt;\n\n\nENJOY!","torrent":{"xt":"urn:btih:33ac92a55940505293c414495908b233955357cb","amp;dn":"The+Legend+Of+Awesomest+Maximus+2010+DvDRip+Feel-Free","amp;tr":["udp%3A%2F%2Ftracker.openbittorrent.com%3A80","udp%3A%2F%2Fopen.demonii.com%3A1337","udp%3A%2F%2Ftracker.coppersurfer.tk%3A6969","udp%3A%2F%2Fexodus.desync.com%3A6969"],"infoHash":"33ac92a55940505293c414495908b233955357cb","infoHashBuffer":{"type":"Buffer","data":[51,172,146,165,89,64,80,82,147,196,20,73,89,8,178,51,149,83,87,203]},"announce":[],"urlList":[]}}